<svg width="108" height="25" viewBox="0 0 108 25" fill="none" xmlns="http://www.w3.org/2000/svg">
<rect x="0.5" y="0.5" width="106.624" height="23.9993" rx="11.9996" fill="white"/>
<path fill-rule="evenodd" clip-rule="evenodd" d="M85.8584 8.22916C85.8065 8.32618 85.7313 8.37459 85.6334 8.37459C85.5582 8.37459 85.4608 8.32191 85.3423 8.21633C85.2238 8.11086 85.0627 7.99391 84.8604 7.86559C84.6577 7.73728 84.4042 7.61898 84.1 7.51058C83.7964 7.4023 83.4217 7.34805 82.9757 7.34805C82.5297 7.34805 82.1372 7.41085 81.7989 7.53625C81.46 7.66175 81.1763 7.83284 80.9474 8.04951C80.7184 8.2663 80.5447 8.5172 80.4262 8.80231C80.3077 9.08753 80.2485 9.38694 80.2485 9.70053C80.2485 10.1111 80.3362 10.4505 80.5128 10.7185C80.6888 10.9866 80.9217 11.2147 81.2105 11.4029C81.4993 11.5911 81.8274 11.7493 82.1948 11.8776C82.5616 12.006 82.9386 12.1329 83.326 12.2583C83.7133 12.3838 84.0904 12.5222 84.4572 12.6732C84.8246 12.8244 85.1526 13.014 85.4414 13.2421C85.7302 13.4702 85.9632 13.7511 86.1392 14.0847C86.3158 14.4183 86.404 14.8332 86.404 15.3294C86.404 15.837 86.3158 16.3146 86.1397 16.7623C85.9637 17.2101 85.708 17.5993 85.3736 17.9299C85.0387 18.2608 84.6292 18.5217 84.1445 18.7127C83.6592 18.9036 83.1055 18.9993 82.4818 18.9993C81.6736 18.9993 80.9781 18.8581 80.3954 18.5758C79.8122 18.2935 79.3018 17.9072 78.8626 17.4166L79.1053 17.0403C79.1748 16.9547 79.2557 16.912 79.3479 16.912C79.3998 16.912 79.4664 16.9462 79.5473 17.0146C79.6282 17.0831 79.7261 17.1672 79.8418 17.267C79.9574 17.3668 80.0964 17.4752 80.2581 17.592C80.4199 17.709 80.6079 17.8174 80.8215 17.9171C81.0356 18.017 81.2811 18.101 81.5585 18.1695C81.8359 18.2379 82.1509 18.2721 82.5035 18.2721C82.9893 18.2721 83.4228 18.1994 83.8039 18.054C84.1855 17.9086 84.5079 17.7105 84.771 17.4595C85.0336 17.2086 85.2347 16.9106 85.3736 16.5655C85.5121 16.2206 85.5815 15.8512 85.5815 15.4577C85.5815 15.03 85.4933 14.6779 85.3173 14.4012C85.1407 14.1247 84.9077 13.8937 84.6189 13.7083C84.3302 13.523 84.0021 13.3676 83.6347 13.2421C83.2679 13.1167 82.8908 12.994 82.5035 12.8742C82.1162 12.7545 81.7391 12.6205 81.3723 12.4722C81.0049 12.3239 80.6768 12.1343 80.388 11.9033C80.0992 11.6723 79.8663 11.3844 79.6903 11.0393C79.5137 10.6943 79.426 10.2623 79.426 9.7433C79.426 9.33843 79.5034 8.94774 79.6601 8.57134C79.8161 8.19494 80.044 7.86278 80.3447 7.57474C80.6455 7.28681 81.0168 7.05584 81.4588 6.88183C81.9008 6.70792 82.4049 6.62092 82.9717 6.62092C83.6073 6.62092 84.1781 6.72076 84.6839 6.92032C85.1897 7.12 85.6505 7.42504 86.0663 7.83565L85.8584 8.22916Z" fill="#1A1C1C"/>
<path fill-rule="evenodd" clip-rule="evenodd" d="M95.0789 8.22916C95.0271 8.32618 94.9519 8.37459 94.8539 8.37459C94.7782 8.37459 94.6813 8.32191 94.5629 8.21633C94.4438 8.11086 94.2832 7.99391 94.0804 7.86559C93.8782 7.73728 93.6247 7.61898 93.3206 7.51058C93.017 7.4023 92.6416 7.34805 92.1956 7.34805C91.7502 7.34805 91.3578 7.41085 91.0189 7.53625C90.6805 7.66175 90.3963 7.83284 90.1679 8.04951C89.9389 8.2663 89.7652 8.5172 89.6467 8.80231C89.5277 9.08753 89.4684 9.38694 89.4684 9.70053C89.4684 10.1111 89.5567 10.4505 89.7327 10.7185C89.9093 10.9866 90.1417 11.2147 90.431 11.4029C90.7198 11.5911 91.0479 11.7493 91.4147 11.8776C91.7821 12.006 92.1592 12.1329 92.5465 12.2583C92.9338 12.3838 93.3109 12.5222 93.6777 12.6732C94.0445 12.8244 94.3726 13.014 94.662 13.2421C94.9508 13.4702 95.1832 13.7511 95.3597 14.0847C95.5363 14.4183 95.624 14.8332 95.624 15.3294C95.624 15.837 95.5363 16.3146 95.3603 16.7623C95.1843 17.2101 94.9285 17.5993 94.5942 17.9299C94.2593 18.2608 93.8492 18.5217 93.3644 18.7127C92.8797 18.9036 92.3255 18.9993 91.7024 18.9993C90.8941 18.9993 90.1987 18.8581 89.616 18.5758C89.0327 18.2935 88.5218 17.9072 88.0832 17.4166L88.3258 17.0403C88.3948 16.9547 88.4756 16.912 88.5685 16.912C88.6203 16.912 88.687 16.9462 88.7678 17.0146C88.8487 17.0831 88.9467 17.1672 89.0623 17.267C89.1779 17.3668 89.3169 17.4752 89.4787 17.592C89.6405 17.709 89.8279 17.8174 90.042 17.9171C90.2556 18.017 90.5011 18.101 90.7791 18.1695C91.0565 18.2379 91.3714 18.2721 91.724 18.2721C92.2093 18.2721 92.6428 18.1994 93.0244 18.054C93.406 17.9086 93.7284 17.7105 93.991 17.4595C94.2542 17.2086 94.4552 16.9106 94.5936 16.5655C94.7326 16.2206 94.8015 15.8512 94.8015 15.4577C94.8015 15.03 94.7138 14.6779 94.5372 14.4012C94.3607 14.1247 94.1283 13.8937 93.8395 13.7083C93.5501 13.523 93.2221 13.3676 92.8552 13.2421C92.4884 13.1167 92.1113 12.994 91.724 12.8742C91.3367 12.7545 90.9596 12.6205 90.5922 12.4722C90.2254 12.3239 89.8973 12.1343 89.6086 11.9033C89.3192 11.6723 89.0868 11.3844 88.9102 11.0393C88.7342 10.6943 88.646 10.2623 88.646 9.7433C88.646 9.33843 88.724 8.94774 88.8801 8.57134C89.0361 8.19494 89.2645 7.86278 89.5653 7.57474C89.8654 7.28681 90.2368 7.05584 90.6794 6.88183C91.1214 6.70792 91.6255 6.62092 92.1922 6.62092C92.8279 6.62092 93.3986 6.72076 93.9044 6.92032C94.4102 7.12 94.871 7.42504 95.2868 7.83565L95.0789 8.22916Z" fill="#1A1C1C"/>
<path fill-rule="evenodd" clip-rule="evenodd" d="M76.9932 12.8058C76.9932 11.9618 76.8748 11.2033 76.6384 10.5303C76.4014 9.85743 76.0682 9.28709 75.6382 8.81941C75.2081 8.35184 74.6904 7.9939 74.0838 7.74582C73.4783 7.49774 72.8056 7.3737 72.0669 7.3737C71.3395 7.3737 70.6742 7.49774 70.071 7.74582C69.4678 7.9939 68.9485 8.35184 68.5128 8.81941C68.077 9.28709 67.7393 9.85743 67.4998 10.5303C67.2603 11.2033 67.1406 11.9618 67.1406 12.8058C67.1406 13.6556 67.2603 14.4155 67.4998 15.0856C67.7393 15.7557 68.077 16.3246 68.5128 16.7922C68.9485 17.2599 69.4678 17.6163 70.071 17.8615C70.6742 18.1068 71.3395 18.2293 72.0669 18.2293C72.8056 18.2293 73.4783 18.1068 74.0838 17.8615C74.6904 17.6163 75.2081 17.2599 75.6382 16.7922C76.0682 16.3246 76.4014 15.7557 76.6384 15.0856C76.8748 14.4155 76.9932 13.6556 76.9932 12.8058ZM77.9109 12.8058C77.9109 13.7412 77.7696 14.5894 77.4865 15.3507C77.204 16.1121 76.8053 16.7622 76.2921 17.3012C75.7777 17.8401 75.1632 18.2565 74.4478 18.5501C73.7318 18.8439 72.9383 18.9907 72.0669 18.9907C71.2068 18.9907 70.419 18.8439 69.7031 18.5501C68.9875 18.2565 68.3728 17.8401 67.8591 17.3012C67.3454 16.7622 66.9458 16.1121 66.66 15.3507C66.3743 14.5894 66.2315 13.7412 66.2315 12.8058C66.2315 11.8763 66.3743 11.0307 66.66 10.2694C66.9458 9.50804 67.3454 8.8579 67.8591 8.31897C68.3728 7.78004 68.9875 7.36233 69.7031 7.06574C70.419 6.76926 71.2068 6.6209 72.0669 6.6209C72.9383 6.6209 73.7318 6.76779 74.4478 7.06146C75.1632 7.35524 75.7777 7.77294 76.2921 8.31469C76.8053 8.85655 77.204 9.50804 77.4865 10.2694C77.7696 11.0307 77.9109 11.8763 77.9109 12.8058Z" fill="#1A1C1C"/>
<path fill-rule="evenodd" clip-rule="evenodd" d="M57.377 12.8924V17.9665H60.423C61.4927 17.9665 62.2993 17.7381 62.8427 17.2812C63.3862 16.8244 63.6578 16.1816 63.6578 15.3528C63.6578 14.9726 63.5849 14.6306 63.4391 14.3269C63.2932 14.0234 63.083 13.765 62.8084 13.5522C62.5339 13.3394 62.1963 13.1763 61.796 13.0627C61.3955 12.9492 60.9407 12.8924 60.4317 12.8924H57.377ZM57.377 12.2539H60.0112C60.5717 12.2539 61.0508 12.1829 61.4484 12.041C61.8459 11.8992 62.172 11.7119 62.4266 11.4791C62.681 11.2464 62.8685 10.9825 62.9886 10.6873C63.1088 10.3923 63.1688 10.0886 63.1688 9.77638C63.1688 8.96477 62.9098 8.35033 62.3922 7.93316C61.8744 7.51599 61.0751 7.30741 59.9941 7.30741H57.377V12.2539ZM56.5019 18.6647V6.6178H59.9941C60.6862 6.6178 61.2854 6.68591 61.7917 6.82213C62.2978 6.95835 62.7168 7.15842 63.0487 7.42234C63.3803 7.68627 63.6278 8.00844 63.7909 8.38864C63.9538 8.76896 64.0355 9.20036 64.0355 9.68272C64.0355 10.0006 63.9796 10.3071 63.8681 10.6022C63.7565 10.8974 63.5949 11.1698 63.3833 11.4195C63.1716 11.6693 62.9127 11.8864 62.6068 12.0708C62.3007 12.2553 61.9504 12.3958 61.5557 12.4922C62.511 12.6342 63.246 12.9492 63.7608 13.4373C64.2756 13.9255 64.5331 14.5696 64.5331 15.3699C64.5331 15.8807 64.4415 16.3404 64.2585 16.7491C64.0754 17.1577 63.8094 17.504 63.4606 17.7878C63.1115 18.0716 62.6825 18.2887 62.1735 18.439C61.6643 18.5895 61.0866 18.6647 60.4403 18.6647H56.5019Z" fill="#1A1C1C"/>
<path fill-rule="evenodd" clip-rule="evenodd" d="M47.5271 15.6678C47.5615 15.5771 47.5974 15.4877 47.6348 15.3997C47.6721 15.3117 47.7136 15.228 47.7597 15.1485L52.5509 6.77956C52.5968 6.70585 52.6427 6.66037 52.6888 6.64334C52.7347 6.62631 52.7978 6.6178 52.8783 6.6178H53.4902V18.6647H52.7146V8.39716C52.7146 8.24962 52.7232 8.09358 52.7405 7.92891L47.9407 16.3489C47.8601 16.4966 47.7453 16.5703 47.596 16.5703H47.4581C47.3144 16.5703 47.1996 16.4966 47.1134 16.3489L42.1844 7.92039C42.2016 8.08506 42.2102 8.24391 42.2102 8.39716V18.6647H41.4433V6.6178H42.0465C42.1268 6.6178 42.1915 6.62631 42.2404 6.64334C42.2891 6.66037 42.3365 6.70585 42.3826 6.77956L47.303 15.157C47.3892 15.316 47.4638 15.4863 47.5271 15.6678Z" fill="#1A1C1C"/>
<path fill-rule="evenodd" clip-rule="evenodd" d="M31.4704 14.2886H37.0269L34.494 8.20134C34.4531 8.10489 34.4122 7.99567 34.3713 7.87357C34.3304 7.75157 34.2895 7.62241 34.2486 7.48619C34.2077 7.62241 34.1668 7.75157 34.1259 7.87357C34.085 7.99567 34.0441 8.10769 34.0032 8.20986L31.4704 14.2886ZM39.7701 18.6647H39.0778C38.9959 18.6647 38.9288 18.6434 38.8762 18.6008C38.8236 18.5582 38.7826 18.5029 38.7535 18.4348L37.2898 14.9357H31.1987L29.7438 18.4348C29.7204 18.4974 29.6795 18.5512 29.6211 18.5965C29.5627 18.6421 29.4925 18.6647 29.4108 18.6647H28.7272L33.8017 6.6178H34.6956L39.7701 18.6647Z" fill="#1A1C1C"/>
<path fill-rule="evenodd" clip-rule="evenodd" d="M21.8843 18.1275H14.476L14.9441 17.2734H21.4162L21.8843 18.1275ZM19.1633 9.57709L22.9144 16.4194H21.9257L19.1579 11.3706L18.6689 12.2622L20.9479 16.4194H15.4123L19.1633 9.57709ZM24.3602 17.2734L19.1579 7.78357L18.6745 8.68531L14.4346 16.4194H13.4459L18.6689 6.89167L18.1801 6L12 17.2734H13.9664L13.03 18.9816H23.3303L22.3938 17.2734H24.3602Z" fill="#0AA7B9"/>
<rect x="0.5" y="0.5" width="106.624" height="23.9993" rx="11.9996" stroke="#9AB0C1"/>
</svg>
