<?xml version="1.0" encoding="UTF-8" standalone="no"?>
<svg
   xmlns:svg="http://www.w3.org/2000/svg"
   xmlns="http://www.w3.org/2000/svg"
   height="238.19002"
   width="1472.3815"
   id="svg31"
   version="1.1"
   viewBox="0 0 1472.3815 238.19002">
  <defs
     id="defs12">
    <style
       id="style10">.cls-1{fill:#0aa7b9;}.cls-2{fill:#00020e;}</style>
  </defs>
  <title
     id="title14">Logo-teal-horizontal</title>
  <path
     style="stroke:none;stroke-width:2;stroke-miterlimit:4;stroke-dasharray:none;stroke-opacity:1"
     class="cls-1"
     d="m 220.63,202.43 -92,-168.7 -8.55,16 -8.74,16 -66.27,121.49 H 27.58 L 119.96,17.85 111.32,2 2,202.43 h 34.79 l -16.6,30.34 H 202.41 L 185.85,202.43 Z M 128.71,65.59 195.05,187.22 h -17.48 l -49,-89.75 -8.65,15.85 40.31,73.9 H 62.36 Z m 48.12,152 h -131 l 8.25,-15.16 h 114.47 z"
     id="path16" />
  <path
     style="stroke:#000000;stroke-width:2;stroke-miterlimit:4;stroke-dasharray:none;stroke-opacity:1"
     class="cls-2"
     d="m 488.79,232.69 h -12 a 5.25,5.25 0 0 1 -3.49,-1.14 7.45,7.45 0 0 1 -2.13,-3 L 445.78,166.08 H 340.13 l -25.23,62.47 a 6.41,6.41 0 0 1 -2.13,2.89 5.65,5.65 0 0 1 -3.64,1.21 h -11.86 l 88,-215.08 h 15.5 z M 344.85,154.56 h 96.34 L 397.29,45.88 q -1.1,-2.58 -2.1,-5.85 -1,-3.27 -2.13,-6.91 -1.07,3.65 -2.13,6.91 -1.06,3.26 -2.13,6 z"
     id="path18" />
  <path
     style="stroke:#000000;stroke-width:2;stroke-miterlimit:4;stroke-dasharray:none;stroke-opacity:1"
     class="cls-2"
     d="m 627.11,179.19 c 0.6,-1.62 1.24,-3.22 1.9,-4.79 a 39.63,39.63 0 0 1 2.2,-4.48 L 715.72,20.5 a 5.46,5.46 0 0 1 2.43,-2.43 9.69,9.69 0 0 1 3.35,-0.46 h 10.79 V 232.69 H 718.61 V 49.43 a 79.87,79.87 0 0 1 0.46,-8.36 L 634.4,191.35 c -1.42,2.63 -3.44,3.95 -6.08,3.95 h -2.43 q -3.8,0 -6.08,-3.95 L 532.87,40.87 a 83.78,83.78 0 0 1 0.45,8.51 V 232.69 H 519.79 V 17.61 h 10.64 a 10.34,10.34 0 0 1 3.42,0.46 5.34,5.34 0 0 1 2.51,2.43 l 86.83,149.57 a 62.7,62.7 0 0 1 3.92,9.12 z"
     id="path20" />
  <path
     style="stroke:#000000;stroke-width:2;stroke-miterlimit:4;stroke-dasharray:none;stroke-opacity:1"
     class="cls-2"
     d="M 780.93,232.69 V 17.61 h 61.86 q 18.39,0 31.85,3.65 13.46,3.65 22.26,10.72 a 43.78,43.78 0 0 1 13.15,17.25 58.48,58.48 0 0 1 4.34,23.1 46.29,46.29 0 0 1 -3,16.42 49.71,49.71 0 0 1 -8.59,14.59 55.17,55.17 0 0 1 -13.75,11.63 66.21,66.21 0 0 1 -18.62,7.52 q 25.38,3.81 39.06,16.87 13.68,13.06 13.7,34.51 a 60,60 0 0 1 -4.86,24.62 49.94,49.94 0 0 1 -14.14,18.55 64.54,64.54 0 0 1 -22.8,11.62 107.41,107.41 0 0 1 -30.7,4 z m 15.5,-114.45 h 46.67 q 14.89,0 25.46,-3.8 a 50.45,50.45 0 0 0 17.33,-10 39,39 0 0 0 10,-14.13 43,43 0 0 0 3.19,-16.27 q 0,-21.74 -13.75,-32.9 -13.75,-11.16 -42.49,-11.18 h -46.36 z m 0,11.4 v 90.59 h 54 q 28.42,0 42.87,-12.24 14.45,-12.24 14.44,-34.43 a 42.1,42.1 0 0 0 -3.88,-18.31 38.26,38.26 0 0 0 -11.21,-13.82 52.07,52.07 0 0 0 -17.94,-8.74 87.89,87.89 0 0 0 -24.16,-3 z"
     id="path22" />
  <path
     style="stroke:#000000;stroke-width:2;stroke-miterlimit:4;stroke-dasharray:none;stroke-opacity:1"
     class="cls-2"
     d="m 1158.49,125.08 q 0,24.93 -7.44,45.22 a 100.23,100.23 0 0 1 -21,34.65 92.57,92.57 0 0 1 -32.38,22.19 q -18.84,7.83 -41.8,7.83 A 107.08,107.08 0 0 1 1014.38,227.14 92.57,92.57 0 0 1 982,204.95 101.14,101.14 0 0 1 961,170.3 q -7.53,-20.3 -7.52,-45.22 0.01,-24.92 7.52,-45.07 a 101.19,101.19 0 0 1 21,-34.66 93.71,93.71 0 0 1 32.38,-22.27 106.37,106.37 0 0 1 41.49,-7.9 q 23,0 41.8,7.83 a 92.24,92.24 0 0 1 32.38,22.27 101,101 0 0 1 21,34.73 q 7.44,20.3 7.44,45.07 z m -16.11,0 q 0,-22.5 -6.23,-40.44 a 87.19,87.19 0 0 0 -17.56,-30.4 75.4,75.4 0 0 0 -27.28,-19.07 91.67,91.67 0 0 0 -35.42,-6.61 90.26,90.26 0 0 0 -35,6.61 77,77 0 0 0 -27.36,19.07 86.85,86.85 0 0 0 -17.79,30.4 q -6.3,17.94 -6.3,40.44 0,22.65 6.3,40.5 a 86.89,86.89 0 0 0 17.79,30.33 76.07,76.07 0 0 0 27.36,19 91.17,91.17 0 0 0 35,6.53 92.6,92.6 0 0 0 35.42,-6.53 74.51,74.51 0 0 0 27.28,-19 87.23,87.23 0 0 0 17.6,-30.33 q 6.19,-17.85 6.19,-40.5 z"
     id="path24" />
  <path
     style="stroke:#000000;stroke-width:2;stroke-miterlimit:4;stroke-dasharray:none;stroke-opacity:1"
     class="cls-2"
     d="m 1298.03,43.76 a 4.3,4.3 0 0 1 -4,2.58 q -2,0 -5.1,-2.81 a 65.8,65.8 0 0 0 -21.74,-12.54 q -8,-2.9 -19.75,-2.89 a 58.9,58.9 0 0 0 -20.66,3.34 43.2,43.2 0 0 0 -15,9.12 38.88,38.88 0 0 0 -9.14,13.38 41.47,41.47 0 0 0 -3.13,16 q 0,10.95 4.64,18.09 a 41.93,41.93 0 0 0 12.26,12.16 79.46,79.46 0 0 0 17.27,8.43 q 9.66,3.42 19.87,6.77 10.21,3.35 19.86,7.37 a 71.87,71.87 0 0 1 17.27,10.11 46.34,46.34 0 0 1 12.26,15 q 4.63,8.89 4.64,22.12 a 69.7,69.7 0 0 1 -4.63,25.46 59.47,59.47 0 0 1 -13.46,20.74 63,63 0 0 1 -21.58,13.91 q -12.77,5.1 -29.18,5.09 -21.29,0 -36.64,-7.52 a 86.33,86.33 0 0 1 -26.9,-20.6 l 4.26,-6.68 a 5.33,5.33 0 0 1 4.25,-2.28 c 0.92,0 2.08,0.6 3.5,1.82 1.42,1.22 3.15,2.71 5.18,4.48 2.03,1.77 4.46,3.7 7.3,5.78 a 59.91,59.91 0 0 0 9.9,5.78 70.42,70.42 0 0 0 12.93,4.48 68.59,68.59 0 0 0 16.6,1.82 63.17,63.17 0 0 0 22.83,-3.87 50,50 0 0 0 17,-10.57 44.72,44.72 0 0 0 10.58,-15.88 52.92,52.92 0 0 0 3.65,-19.68 q 0,-11.4 -4.64,-18.78 A 40.1,40.1 0 0 0 1276.27,141.18 79.2,79.2 0 0 0 1259,132.9 q -9.66,-3.34 -19.86,-6.54 -10.2,-3.2 -19.87,-7.14 A 68.73,68.73 0 0 1 1202,109.11 46.24,46.24 0 0 1 1189.74,93.76 q -4.63,-9.19 -4.64,-23 a 54.39,54.39 0 0 1 4.11,-20.82 51.89,51.89 0 0 1 12,-17.71 59.09,59.09 0 0 1 19.56,-12.31 71.43,71.43 0 0 1 26.57,-4.64 80.4,80.4 0 0 1 30.06,5.32 72.14,72.14 0 0 1 24.26,16.26 z"
     id="path26" />
  <path
     style="opacity:1;fill:#00020e;fill-opacity:1;stroke:#000000;stroke-width:2;stroke-miterlimit:4;stroke-dasharray:none;stroke-opacity:1"
     class="cls-2"
     d="m 1459.9,43.76 a 4.29,4.29 0 0 1 -4,2.58 q -2,0 -5.11,-2.81 a 65.65,65.65 0 0 0 -8.46,-6.23 66.92,66.92 0 0 0 -13.34,-6.31 q -8,-2.9 -19.75,-2.89 a 58.86,58.86 0 0 0 -20.66,3.34 43.2,43.2 0 0 0 -15,9.12 38.9,38.9 0 0 0 -9.15,13.38 41.64,41.64 0 0 0 -3.12,16 q 0,10.95 4.64,18.09 a 41.89,41.89 0 0 0 12.25,12.16 79.77,79.77 0 0 0 17.28,8.43 q 9.66,3.42 19.86,6.77 10.2,3.35 19.86,7.37 a 71.74,71.74 0 0 1 17.28,10.11 46.47,46.47 0 0 1 12.26,15 q 4.63,8.89 4.64,22.12 a 69.71,69.71 0 0 1 -4.64,25.46 59.3,59.3 0 0 1 -13.45,20.74 63.08,63.08 0 0 1 -21.58,13.91 q -12.76,5.1 -29.19,5.09 -21.29,0 -36.63,-7.52 a 86.22,86.22 0 0 1 -26.9,-20.6 l 4.25,-6.68 a 5.36,5.36 0 0 1 4.26,-2.28 c 0.91,0 2.08,0.6 3.5,1.82 l 5.18,4.48 q 3,2.67 7.3,5.78 a 60.22,60.22 0 0 0 9.89,5.78 70.8,70.8 0 0 0 12.94,4.48 68.5,68.5 0 0 0 16.59,1.82 63.19,63.19 0 0 0 22.84,-3.87 50.15,50.15 0 0 0 17,-10.57 44.85,44.85 0 0 0 10.58,-15.88 52.92,52.92 0 0 0 3.65,-19.68 q 0,-11.4 -4.64,-18.78 a 40.21,40.21 0 0 0 -12.14,-12.38 79.2,79.2 0 0 0 -17.27,-8.28 q -9.67,-3.34 -19.87,-6.54 -10.2,-3.2 -19.86,-7.14 a 69,69 0 0 1 -17.28,-10.11 46.21,46.21 0 0 1 -12.25,-15.35 q -4.65,-9.19 -4.64,-23 a 54.2,54.2 0 0 1 4.11,-20.82 51.75,51.75 0 0 1 12,-17.71 59.09,59.09 0 0 1 19.56,-12.31 71.37,71.37 0 0 1 26.56,-4.64 80.4,80.4 0 0 1 30.06,5.32 72.08,72.08 0 0 1 24.27,16.26 z"
     id="path28" />
</svg>
