<svg width="108" height="25" viewBox="0 0 108 25" fill="none" xmlns="http://www.w3.org/2000/svg">
<rect x="0.5" y="0.5" width="106.624" height="23.9993" rx="11.9996" fill="#2F538A"/>
<path fill-rule="evenodd" clip-rule="evenodd" d="M85.8582 8.22916C85.8064 8.32618 85.7312 8.37459 85.6333 8.37459C85.5581 8.37459 85.4607 8.32191 85.3422 8.21633C85.2237 8.11086 85.0625 7.99391 84.8603 7.86559C84.6576 7.73728 84.4041 7.61898 84.0999 7.51058C83.7963 7.4023 83.4215 7.34805 82.9755 7.34805C82.5296 7.34805 82.1371 7.41085 81.7988 7.53625C81.4599 7.66175 81.1762 7.83284 80.9472 8.04951C80.7183 8.2663 80.5445 8.5172 80.4261 8.80231C80.3076 9.08753 80.2483 9.38694 80.2483 9.70053C80.2483 10.1111 80.3361 10.4505 80.5126 10.7185C80.6886 10.9866 80.9216 11.2147 81.2104 11.4029C81.4992 11.5911 81.8272 11.7493 82.1946 11.8776C82.5615 12.006 82.9385 12.1329 83.3258 12.2583C83.7132 12.3838 84.0902 12.5222 84.4571 12.6732C84.8244 12.8244 85.1525 13.014 85.4413 13.2421C85.7301 13.4702 85.9631 13.7511 86.1391 14.0847C86.3156 14.4183 86.4039 14.8332 86.4039 15.3294C86.4039 15.837 86.3156 16.3146 86.1396 16.7623C85.9636 17.2101 85.7079 17.5993 85.3735 17.9299C85.0386 18.2608 84.6291 18.5217 84.1443 18.7127C83.6591 18.9036 83.1054 18.9993 82.4817 18.9993C81.6735 18.9993 80.978 18.8581 80.3953 18.5758C79.812 18.2935 79.3017 17.9072 78.8625 17.4166L79.1052 17.0403C79.1747 16.9547 79.2555 16.912 79.3478 16.912C79.3997 16.912 79.4663 16.9462 79.5472 17.0146C79.6281 17.0831 79.726 17.1672 79.8417 17.267C79.9573 17.3668 80.0963 17.4752 80.258 17.592C80.4198 17.709 80.6077 17.8174 80.8214 17.9171C81.0355 18.017 81.281 18.101 81.5584 18.1695C81.8358 18.2379 82.1508 18.2721 82.5034 18.2721C82.9892 18.2721 83.4227 18.1994 83.8037 18.054C84.1854 17.9086 84.5077 17.7105 84.7709 17.4595C85.0335 17.2086 85.2345 16.9106 85.3735 16.5655C85.5119 16.2206 85.5814 15.8512 85.5814 15.4577C85.5814 15.03 85.4931 14.6779 85.3171 14.4012C85.1406 14.1247 84.9076 13.8937 84.6188 13.7083C84.33 13.523 84.0019 13.3676 83.6346 13.2421C83.2677 13.1167 82.8907 12.994 82.5034 12.8742C82.116 12.7545 81.739 12.6205 81.3721 12.4722C81.0048 12.3239 80.6767 12.1343 80.3879 11.9033C80.0991 11.6723 79.8661 11.3844 79.6901 11.0393C79.5136 10.6943 79.4258 10.2623 79.4258 9.7433C79.4258 9.33843 79.5033 8.94774 79.66 8.57134C79.816 8.19494 80.0439 7.86278 80.3446 7.57474C80.6453 7.28681 81.0167 7.05584 81.4587 6.88183C81.9007 6.70792 82.4048 6.62092 82.9716 6.62092C83.6072 6.62092 84.178 6.72076 84.6838 6.92032C85.1895 7.12 85.6503 7.42504 86.0661 7.83565L85.8582 8.22916Z" fill="white"/>
<path fill-rule="evenodd" clip-rule="evenodd" d="M95.0788 8.22916C95.027 8.32618 94.9518 8.37459 94.8538 8.37459C94.7781 8.37459 94.6812 8.32191 94.5627 8.21633C94.4437 8.11086 94.2831 7.99391 94.0803 7.86559C93.8781 7.73728 93.6246 7.61898 93.3205 7.51058C93.0169 7.4023 92.6415 7.34805 92.1955 7.34805C91.7501 7.34805 91.3577 7.41085 91.0187 7.53625C90.6804 7.66175 90.3962 7.83284 90.1678 8.04951C89.9388 8.2663 89.7651 8.5172 89.6466 8.80231C89.5276 9.08753 89.4683 9.38694 89.4683 9.70053C89.4683 10.1111 89.5566 10.4505 89.7326 10.7185C89.9092 10.9866 90.1416 11.2147 90.4309 11.4029C90.7197 11.5911 91.0478 11.7493 91.4146 11.8776C91.782 12.006 92.1591 12.1329 92.5464 12.2583C92.9337 12.3838 93.3108 12.5222 93.6776 12.6732C94.0444 12.8244 94.3725 13.014 94.6618 13.2421C94.9506 13.4702 95.183 13.7511 95.3596 14.0847C95.5362 14.4183 95.6239 14.8332 95.6239 15.3294C95.6239 15.837 95.5362 16.3146 95.3602 16.7623C95.1842 17.2101 94.9284 17.5993 94.5941 17.9299C94.2592 18.2608 93.849 18.5217 93.3643 18.7127C92.8796 18.9036 92.3254 18.9993 91.7023 18.9993C90.894 18.9993 90.1985 18.8581 89.6158 18.5758C89.0326 18.2935 88.5217 17.9072 88.0831 17.4166L88.3257 17.0403C88.3946 16.9547 88.4755 16.912 88.5684 16.912C88.6202 16.912 88.6868 16.9462 88.7677 17.0146C88.8486 17.0831 88.9466 17.1672 89.0622 17.267C89.1778 17.3668 89.3168 17.4752 89.4786 17.592C89.6403 17.709 89.8277 17.8174 90.0419 17.9171C90.2555 18.017 90.501 18.101 90.7789 18.1695C91.0563 18.2379 91.3713 18.2721 91.7239 18.2721C92.2092 18.2721 92.6427 18.1994 93.0243 18.054C93.4059 17.9086 93.7283 17.7105 93.9909 17.4595C94.254 17.2086 94.4551 16.9106 94.5935 16.5655C94.7325 16.2206 94.8014 15.8512 94.8014 15.4577C94.8014 15.03 94.7137 14.6779 94.5371 14.4012C94.3605 14.1247 94.1281 13.8937 93.8394 13.7083C93.55 13.523 93.2219 13.3676 92.8551 13.2421C92.4883 13.1167 92.1112 12.994 91.7239 12.8742C91.3366 12.7545 90.9595 12.6205 90.5921 12.4722C90.2253 12.3239 89.8972 12.1343 89.6084 11.9033C89.3191 11.6723 89.0867 11.3844 88.9101 11.0393C88.7341 10.6943 88.6458 10.2623 88.6458 9.7433C88.6458 9.33843 88.7239 8.94774 88.8799 8.57134C89.036 8.19494 89.2644 7.86278 89.5651 7.57474C89.8653 7.28681 90.2367 7.05584 90.6793 6.88183C91.1213 6.70792 91.6254 6.62092 92.1921 6.62092C92.8278 6.62092 93.3985 6.72076 93.9043 6.92032C94.4101 7.12 94.8709 7.42504 95.2867 7.83565L95.0788 8.22916Z" fill="white"/>
<path fill-rule="evenodd" clip-rule="evenodd" d="M76.9931 12.8058C76.9931 11.9618 76.8746 11.2033 76.6383 10.5303C76.4013 9.85743 76.0681 9.28709 75.6381 8.81941C75.208 8.35184 74.6903 7.9939 74.0837 7.74582C73.4782 7.49774 72.8055 7.3737 72.0667 7.3737C71.3394 7.3737 70.6741 7.49774 70.0709 7.74582C69.4677 7.9939 68.9483 8.35184 68.5127 8.81941C68.0769 9.28709 67.7392 9.85743 67.4997 10.5303C67.2602 11.2033 67.1404 11.9618 67.1404 12.8058C67.1404 13.6556 67.2602 14.4155 67.4997 15.0856C67.7392 15.7557 68.0769 16.3246 68.5127 16.7922C68.9483 17.2599 69.4677 17.6163 70.0709 17.8615C70.6741 18.1068 71.3394 18.2293 72.0667 18.2293C72.8055 18.2293 73.4782 18.1068 74.0837 17.8615C74.6903 17.6163 75.208 17.2599 75.6381 16.7922C76.0681 16.3246 76.4013 15.7557 76.6383 15.0856C76.8746 14.4155 76.9931 13.6556 76.9931 12.8058ZM77.9107 12.8058C77.9107 13.7412 77.7695 14.5894 77.4864 15.3507C77.2039 16.1121 76.8052 16.7622 76.292 17.3012C75.7776 17.8401 75.163 18.2565 74.4476 18.5501C73.7317 18.8439 72.9382 18.9907 72.0667 18.9907C71.2067 18.9907 70.4189 18.8439 69.7029 18.5501C68.9874 18.2565 68.3727 17.8401 67.859 17.3012C67.3453 16.7622 66.9457 16.1121 66.6599 15.3507C66.3742 14.5894 66.2313 13.7412 66.2313 12.8058C66.2313 11.8763 66.3742 11.0307 66.6599 10.2694C66.9457 9.50804 67.3453 8.8579 67.859 8.31897C68.3727 7.78004 68.9874 7.36233 69.7029 7.06574C70.4189 6.76926 71.2067 6.6209 72.0667 6.6209C72.9382 6.6209 73.7317 6.76779 74.4476 7.06146C75.163 7.35524 75.7776 7.77294 76.292 8.31469C76.8052 8.85655 77.2039 9.50804 77.4864 10.2694C77.7695 11.0307 77.9107 11.8763 77.9107 12.8058Z" fill="white"/>
<path fill-rule="evenodd" clip-rule="evenodd" d="M57.3769 12.8924V17.9665H60.4229C61.4925 17.9665 62.2992 17.7381 62.8426 17.2812C63.386 16.8244 63.6577 16.1816 63.6577 15.3528C63.6577 14.9726 63.5848 14.6306 63.4389 14.3269C63.2931 14.0234 63.0828 13.765 62.8083 13.5522C62.5338 13.3394 62.1962 13.1763 61.7958 13.0627C61.3954 12.9492 60.9406 12.8924 60.4316 12.8924H57.3769ZM57.3769 12.2539H60.0111C60.5716 12.2539 61.0506 12.1829 61.4483 12.041C61.8458 11.8992 62.1719 11.7119 62.4265 11.4791C62.6809 11.2464 62.8684 10.9825 62.9885 10.6873C63.1086 10.3923 63.1687 10.0886 63.1687 9.77638C63.1687 8.96477 62.9097 8.35033 62.3921 7.93316C61.8743 7.51599 61.075 7.30741 59.994 7.30741H57.3769V12.2539ZM56.5018 18.6647V6.6178H59.994C60.686 6.6178 61.2853 6.68591 61.7916 6.82213C62.2977 6.95835 62.7167 7.15842 63.0485 7.42234C63.3802 7.68627 63.6277 8.00844 63.7908 8.38864C63.9537 8.76896 64.0353 9.20036 64.0353 9.68272C64.0353 10.0006 63.9795 10.3071 63.868 10.6022C63.7564 10.8974 63.5947 11.1698 63.3832 11.4195C63.1715 11.6693 62.9126 11.8864 62.6066 12.0708C62.3006 12.2553 61.9503 12.3958 61.5556 12.4922C62.5108 12.6342 63.2459 12.9492 63.7606 13.4373C64.2755 13.9255 64.533 14.5696 64.533 15.3699C64.533 15.8807 64.4414 16.3404 64.2584 16.7491C64.0752 17.1577 63.8093 17.504 63.4604 17.7878C63.1114 18.0716 62.6824 18.2887 62.1733 18.439C61.6642 18.5895 61.0864 18.6647 60.4401 18.6647H56.5018Z" fill="white"/>
<path fill-rule="evenodd" clip-rule="evenodd" d="M47.5269 15.6678C47.5614 15.5771 47.5972 15.4877 47.6346 15.3997C47.6719 15.3117 47.7135 15.228 47.7596 15.1485L52.5508 6.77956C52.5967 6.70585 52.6426 6.66037 52.6886 6.64334C52.7346 6.62631 52.7977 6.6178 52.8782 6.6178H53.49V18.6647H52.7145V8.39716C52.7145 8.24962 52.7231 8.09358 52.7403 7.92891L47.9406 16.3489C47.86 16.4966 47.7452 16.5703 47.5959 16.5703H47.4579C47.3143 16.5703 47.1995 16.4966 47.1132 16.3489L42.1843 7.92039C42.2015 8.08506 42.2101 8.24391 42.2101 8.39716V18.6647H41.4432V6.6178H42.0463C42.1267 6.6178 42.1914 6.62631 42.2403 6.64334C42.289 6.66037 42.3364 6.70585 42.3825 6.77956L47.3029 15.157C47.3891 15.316 47.4637 15.4863 47.5269 15.6678Z" fill="white"/>
<path fill-rule="evenodd" clip-rule="evenodd" d="M31.4703 14.2886H37.0268L34.4939 8.20134C34.453 8.10489 34.412 7.99567 34.3712 7.87357C34.3303 7.75157 34.2893 7.62241 34.2485 7.48619C34.2076 7.62241 34.1666 7.75157 34.1258 7.87357C34.0849 7.99567 34.0439 8.10769 34.0031 8.20986L31.4703 14.2886ZM39.77 18.6647H39.0776C38.9958 18.6647 38.9286 18.6434 38.8761 18.6008C38.8235 18.5582 38.7825 18.5029 38.7534 18.4348L37.2897 14.9357H31.1986L29.7437 18.4348C29.7203 18.4974 29.6794 18.5512 29.621 18.5965C29.5625 18.6421 29.4924 18.6647 29.4107 18.6647H28.7271L33.8016 6.6178H34.6955L39.77 18.6647Z" fill="white"/>
<path fill-rule="evenodd" clip-rule="evenodd" d="M21.8843 18.1275H14.476L14.9441 17.2734H21.4162L21.8843 18.1275ZM19.1633 9.57709L22.9144 16.4194H21.9257L19.1579 11.3706L18.6689 12.2622L20.9479 16.4194H15.4123L19.1633 9.57709ZM24.3602 17.2734L19.1579 7.78357L18.6745 8.68531L14.4346 16.4194H13.4459L18.6689 6.89167L18.1801 6L12 17.2734H13.9664L13.03 18.9816H23.3303L22.3938 17.2734H24.3602Z" fill="white"/>
<rect x="0.5" y="0.5" width="106.624" height="23.9993" rx="11.9996" stroke="#2F538A"/>
</svg>
